<svg xmlns="http://www.w3.org/2000/svg" width="40" height="40" viewBox="0 0 40 40"><g transform="translate(-1.322 -1.322)"><path d="M15.344,1.852a3.7,3.7,0,1,1-3.7,3.708,3.8,3.8,0,0,1,.019-.38,3.693,3.693,0,0,1,3.683-3.327Z" transform="translate(18.57 0.952)" fill="#8a8aa5"/><path d="M11.8,1.322A5.186,5.186,0,1,1,6.615,6.511a5.309,5.309,0,0,1,.027-.532A5.173,5.173,0,0,1,11.8,1.322Z" transform="translate(9.523 0)" fill="#8a8aa5"/><path d="M6.348,1.852a3.7,3.7,0,1,1-3.7,3.708,3.8,3.8,0,0,1,.019-.38A3.693,3.693,0,0,1,6.348,1.852Z" transform="translate(2.382 0.952)" fill="#8a8aa5"/><path d="M13.228,10.318c-.247,0-.49.014-.731.038-.1.01-.193.027-.289.041-.142.019-.283.038-.422.065s-.245.058-.367.088c-.1.026-.208.049-.31.08-.136.04-.268.089-.4.137-.087.031-.175.059-.26.094-.122.049-.24.105-.359.161-.094.044-.19.087-.282.135-.115.06-.226.125-.337.191-.086.051-.171.1-.255.155-.113.073-.223.15-.331.229-.075.054-.15.109-.223.166-.11.087-.217.177-.323.269q-.1.086-.192.175-.154.145-.3.3c-.061.065-.121.131-.179.2-.094.107-.186.216-.273.328-.048.062-.094.125-.14.188-.092.126-.183.254-.268.386-.037.057-.071.115-.106.174-.083.137-.162.276-.236.42-.034.066-.065.135-.1.2-.066.139-.132.279-.19.422-.03.074-.055.151-.082.227-.054.147-.106.294-.15.446-.017.059-.03.12-.046.179-.046.174-.091.349-.124.528,0,.023-.007.047-.012.071-.038.212-.07.427-.09.645s-.033.446-.033.673a7.409,7.409,0,0,0,14.818,0c0-.232-.014-.461-.035-.687-.019-.2-.049-.4-.084-.6-.006-.035-.009-.07-.016-.1-.038-.2-.086-.394-.139-.586-.009-.034-.016-.068-.026-.1-.051-.176-.112-.347-.175-.516-.019-.052-.037-.1-.058-.156-.063-.157-.134-.31-.207-.461-.029-.059-.055-.12-.085-.178-.07-.135-.145-.266-.223-.4-.043-.073-.085-.146-.13-.217-.077-.121-.16-.237-.244-.353-.05-.069-.1-.138-.153-.205q-.137-.176-.285-.343-.076-.086-.155-.169c-.1-.107-.2-.21-.31-.311-.066-.063-.134-.124-.2-.184-.1-.09-.208-.178-.315-.262-.069-.054-.14-.106-.211-.158-.116-.084-.232-.167-.353-.244-.074-.047-.149-.091-.224-.136-.12-.071-.241-.142-.366-.207-.085-.044-.172-.084-.259-.124-.123-.058-.245-.115-.372-.166-.089-.036-.181-.066-.272-.1-.127-.046-.254-.093-.385-.132-.107-.032-.217-.057-.325-.084s-.236-.062-.356-.085c-.139-.027-.281-.046-.422-.065-.1-.013-.192-.031-.289-.041C13.72,10.332,13.475,10.318,13.228,10.318Zm3.423,3.959A.741.741,0,0,1,17.2,15.54L13.01,19.734a.741.741,0,0,1-.417.207l-.062.007a.741.741,0,0,1-.566-.214l-2.618-2.62a.74.74,0,1,1,1.044-1.049l2.1,2.1L16.153,14.5A.741.741,0,0,1,16.651,14.278Z" transform="translate(8.093 16.187)" fill="#f36e32"/><path d="M14.18,6.549a14.369,14.369,0,0,1,5.049.874c.239.092.47.191.691.3.064.031.125.064.188.1.19.1.373.2.548.3.061.037.121.074.179.111a6.581,6.581,0,0,1,.58.417l.03.023a5.288,5.288,0,0,1,.564.537,4.564,4.564,0,0,1,.447.583l.014.025a3.863,3.863,0,0,1,.285.55c.021.05.042.1.061.152a3.735,3.735,0,0,1,.148.508c.013.059.03.116.041.176a4.162,4.162,0,0,1,.065.718v11.11h-.185a8.874,8.874,0,0,0-7.123-7.259c-.027,0-.054-.007-.081-.012-.222-.038-.444-.074-.671-.1-.273-.027-.55-.042-.83-.042s-.559.015-.833.042c-.227.021-.449.057-.671.1l-.081.013a8.9,8.9,0,0,0-7.169,7.258H5.291V11.917a4.165,4.165,0,0,1,.064-.718c.011-.062.028-.121.042-.182a3.74,3.74,0,0,1,.148-.5c.018-.047.037-.094.056-.14A3.866,3.866,0,0,1,5.9,9.8a4.559,4.559,0,0,1,.453-.59,5.317,5.317,0,0,1,.563-.537l.03-.023a6.575,6.575,0,0,1,.57-.411c.067-.043.136-.085.205-.127.154-.093.315-.181.48-.266.09-.046.179-.095.272-.139.17-.081.35-.154.531-.227A14.241,14.241,0,0,1,14.18,6.549Z" transform="translate(7.141 9.404)" fill="#8a8aa5"/><path d="M16.762,5.886A11.385,11.385,0,0,1,22,7.047a3.491,3.491,0,0,1,2.166,3.1v11.11H14.536V13.109a5.511,5.511,0,0,0-.059-.771c-.006-.046-.013-.091-.02-.136a5.375,5.375,0,0,0-.174-.733s0,0,0,0V11.46A5.586,5.586,0,0,0,13.1,9.409c-.05-.055-.113-.1-.166-.15a7.672,7.672,0,0,0-1.779-1.376c-.1-.054-.2-.1-.3-.152a9.609,9.609,0,0,1,5.908-1.844Z" transform="translate(17.152 8.212)" fill="#8a8aa5"/><path d="M8.73,5.886a9.6,9.6,0,0,1,5.908,1.844c-.1.051-.2.1-.3.152a7.7,7.7,0,0,0-1.794,1.386c-.049.048-.107.089-.153.14a5.617,5.617,0,0,0-1.175,2.021c-.006.018-.013.036-.019.055a5.362,5.362,0,0,0-.169.718c-.008.046-.014.092-.02.139a5.462,5.462,0,0,0-.061.768v8.147H1.322V10.147a3.484,3.484,0,0,1,2.16-3.1A11.41,11.41,0,0,1,8.73,5.886Z" transform="translate(0 8.212)" fill="#8a8aa5"/></g></svg>