<svg xmlns="http://www.w3.org/2000/svg" width="26" height="24" viewBox="0 0 26 24">
  <g id="_05_Briefcase_Bag_Wealth" data-name="05 Briefcase, Bag,  Wealth" transform="translate(-2 -3)">
    <path id="Path_10" data-name="Path 10" d="M25,7H21V6a3.173,3.173,0,0,0-3-3H12A3.173,3.173,0,0,0,9,6V7H5C3.461,7,2,7.471,2,9v6a3.173,3.173,0,0,0,3,3h6V15a2.115,2.115,0,0,1,2-2h4a2.115,2.115,0,0,1,2,2v3h6a3.173,3.173,0,0,0,3-3V9C28,7.471,26.539,7,25,7ZM11,6a1.058,1.058,0,0,1,1-1h6a1.058,1.058,0,0,1,1,1V7H11Zm8,13h7v5a3.173,3.173,0,0,1-3,3H7a3.173,3.173,0,0,1-3-3V19h7v2c0,1.02.974,1,2,1h4c1.026,0,2,.02,2-1Zm-2,2c.513,0,1,.51,1,0V15a1.058,1.058,0,0,0-1-1H13a1.058,1.058,0,0,0-1,1v6c0,.51.487,0,1,0Zm-3-5h2v4H14Z" transform="translate(0)" />
  </g>
</svg>
