<svg xmlns="http://www.w3.org/2000/svg" width="26.199" height="24.184" viewBox="0 0 26.199 24.184">
  <path id="Path_17" data-name="Path 17" d="M3,154.266v-1c-.086-.072,0,.123,0,0H3c0-.2-.178-1,0-1H6a2.516,2.516,0,0,1,1,1H7c0,.123.086-.072,0,0l-1,1c-.086.072,0-.122,0,0v9c0,.122-.087-.072,0,0H7c.086.072,0-.123,0,0v1a2.516,2.516,0,0,1-1,1H3c-.178,0,0-.8,0-1v-1c0-.123-.086.072,0,0H3c.086-.072,0,.122,0,0v-9C3,154.143,3.086,154.338,3,154.266Zm-2-5,11-5a4.519,4.519,0,0,1,2,0l11,5c.444.2,1,.521,1,1v1c0,.219.224,0,0,0H0c-.224,0,0,.219,0,0v-1C0,149.787.556,149.465,1,149.266Zm-1,17H1c.224,0,0,.255,0,0H1c0-.239.79-1,1-1H24c.21,0,1,.761,1,1h0c0,.255-.224,0,0,0h1c.142,0,0,.838,0,1v1c0,.162.142,0,0,0H0c-.142,0,0,.162,0,0v-1C0,167.1-.142,166.266,0,166.266Zm13-12c2.822,0,5,1.325,5,4a5,5,0,0,1-10,0C8,155.591,10.178,154.266,13,154.266Zm-2,3c0-.841.168-.764,1-1v-1c0-.126.867,0,1,0h0c.133,0,1-.126,1,0v1c.158.038-.143-.075,0,0,.52.275.9.451,1,1,.013.068.047-.053,0,0s.073,0,0,0H14c-.108,0,.031.1,0,0-.236-.739-2-.906-2,0,0,.494.6.863,1,1,.92.318,2,.922,2,2,0,.841-.168.764-1,1v1c0,.127-.867,0-1,0h0c-.133,0-1,.127-1,0v-1c-.158-.038.143.075,0,0-.52-.275-.9-.451-1-1-.013-.068-.047.053,0,0s-.074,0,0,0h1c.108,0-.031-.1,0,0,.236.739,2,.906,2,0,0-.523-.584-.855-1-1C12.118,158.959,11,158.287,11,157.266Zm2-11a2,2,0,0,1,0,4,2,2,0,0,1,0-4Zm7,8-1-1c-.086-.072,0,.123,0,0h0a2.519,2.519,0,0,1,1-1h3c.178,0,0,.8,0,1h0c0,.123.086-.072,0,0v1c-.086.072,0-.122,0,0v9c0,.122-.086-.072,0,0h0c.086.072,0-.123,0,0v1c0,.2.178,1,0,1H20a2.519,2.519,0,0,1-1-1v-1c0-.123-.086.072,0,0h1c.086-.072,0,.122,0,0v-9C20,154.143,20.086,154.338,20,154.266Z" transform="translate(0.099 -144.154)"  fill-rule="evenodd"/>
</svg>
