<svg xmlns="http://www.w3.org/2000/svg" width="18" height="18" viewBox="0 0 18 18"><circle cx="2.513" cy="2.513" r="2.513" transform="translate(0.935 8.649)" fill="#8a8aa5"/><path d="M0,118.4A3.4,3.4,0,0,1,3.39,115h0a3.4,3.4,0,0,1,3.39,3.4h0a1.157,1.157,0,0,1-1.154,1.158H1.154A1.157,1.157,0,0,1,0,118.4Z" transform="translate(0 -101.558)" fill="#8a8aa5"/><path d="M59.987,0A1.987,1.987,0,0,0,58,1.987v10.85a.584.584,0,0,0,.942.463l2.087-1.611h6.205A1.987,1.987,0,0,0,69.221,9.7V1.987A1.987,1.987,0,0,0,67.234,0Z" transform="translate(-51.221)" fill="#8a8aa5" fill-rule="evenodd"/><rect width="7.013" height="1.169" rx="0.584" transform="translate(8.883 3.156)" fill="#12123c"/><rect width="3.857" height="1.169" rx="0.584" transform="translate(8.883 5.26)" fill="#12123c"/><rect width="2.805" height="1.169" rx="0.584" transform="translate(13.091 5.26)" fill="#12123c"/><rect width="7.013" height="1.169" rx="0.584" transform="translate(8.883 7.364)" fill="#12123c"/></svg>