<svg xmlns="http://www.w3.org/2000/svg" width="21.13" height="20.879" viewBox="0 0 21.13 20.879">
  <g id="Group_1851" data-name="Group 1851" transform="translate(0 0)">
    <g id="Group_1844" data-name="Group 1844">
      <path id="Path_3201" data-name="Path 3201" d="M215.761,335h8.3c3.01,0,4.762,1.749,4.762,4.746V349.9c0,3.046-1.752,4.756-4.762,4.756h-8.3c-3.058,0-4.761-1.71-4.761-4.756v-10.15C211,336.749,212.7,335,215.761,335Z" transform="translate(-207.691 -335)" fill="#8a8aa5"/>
      <path id="Path_3202" data-name="Path 3202" d="M223.258,339.65v.009a.72.72,0,1,1,0,1.44H220.5a.725.725,0,0,1,0-1.449Zm-7.238,5.622h7.238a.721.721,0,0,0,0-1.441H216.02a.721.721,0,0,0,0,1.441Z" transform="translate(-207.294 -334.961)" fill="#2a2a50" fill-rule="evenodd"/>
      <g id="Group_1843" data-name="Group 1843" transform="translate(0 9.514)">
        <path id="Path_3203" data-name="Path 3203" d="M269.744,395.87l-2.687,2.172a.155.155,0,0,0-.025.214l3.186,4.151a1.046,1.046,0,0,0,.812.407l1.739.021a.2.2,0,0,0,.2-.155l.395-1.718a1.064,1.064,0,0,0-.2-.894l-3.2-4.171A.149.149,0,0,0,269.744,395.87Z" transform="translate(-264.354 -392.698)" fill="#8a8aa5"/>
        <path id="Path_3203_-_Outline" data-name="Path 3203 - Outline" d="M269.563,395.565a.15.15,0,0,1,.119.059l3.2,4.171a1.064,1.064,0,0,1,.2.894l-.395,1.718a.2.2,0,0,1-.2.155l-1.739-.021a1.046,1.046,0,0,1-.812-.407l-3.186-4.151a.155.155,0,0,1,.025-.214l2.687-2.172a.147.147,0,0,1,.093-.033m0-1.228a1.38,1.38,0,0,0-.867.308l-2.683,2.168a1.391,1.391,0,0,0-.234,1.913l0,.005,3.192,4.159a2.272,2.272,0,0,0,1.759.879h.006l1.756.022a1.421,1.421,0,0,0,1.389-1.106l.4-1.735a2.288,2.288,0,0,0-.432-1.91l-3.2-4.164A1.387,1.387,0,0,0,269.563,394.337Z" transform="translate(-264.079 -392.426)" fill="#2a2a50"/>
        <path id="Path_3204" data-name="Path 3204" d="M275.415,394.821l.518.647a.148.148,0,0,0,.211.024c.63-.509,2.243-1.817,2.69-2.18a.154.154,0,0,0,.022-.215l-.5-.621a1.281,1.281,0,0,0-1.882-.128l-.732.584a1.523,1.523,0,0,0-.569.873A1.2,1.2,0,0,0,275.415,394.821Z" transform="translate(-273.915 -390.772)" fill="#8a8aa5"/>
        <path id="Path_3204_-_Outline" data-name="Path 3204 - Outline" d="M275.782,395.254a.149.149,0,0,1-.117-.057l-.518-.647a1.2,1.2,0,0,1-.242-1.017,1.523,1.523,0,0,1,.569-.873l.732-.584a1.281,1.281,0,0,1,1.882.128l.5.621a.154.154,0,0,1-.022.215c-.447.363-2.06,1.67-2.69,2.18a.147.147,0,0,1-.093.033m0,1.228a1.38,1.38,0,0,0,.866-.307h0l2.4-1.948.291-.236a1.389,1.389,0,0,0,.209-1.927l-.008-.01-.494-.614a2.426,2.426,0,0,0-1.917-.941,2.7,2.7,0,0,0-1.692.616l-.728.58a2.752,2.752,0,0,0-1.009,1.579,2.419,2.419,0,0,0,.473,2.029l.011.014.516.644A1.369,1.369,0,0,0,275.782,396.482Z" transform="translate(-273.647 -390.5)" fill="#2a2a50"/>
      </g>
    </g>
  </g>
</svg>
