<svg xmlns="http://www.w3.org/2000/svg" width="36" height="40" viewBox="0 0 36 40">
  <path id="Path_3875" data-name="Path 3875" d="M212.426,397.486A1.446,1.446,0,0,0,211,398.954v.76a1.459,1.459,0,0,0,1.426,1.468h33.146A1.46,1.46,0,0,0,247,399.714v-.76a1.447,1.447,0,0,0-1.428-1.468H239.74a2.566,2.566,0,0,1-2.482-2.03l-.3-1.364A3.976,3.976,0,0,0,233.13,391h-8.26a3.973,3.973,0,0,0-3.8,2.994l-.326,1.46a2.563,2.563,0,0,1-2.482,2.032Zm2.962,27.782c-.608-5.674-1.674-19.154-1.674-19.29a1.481,1.481,0,0,1,.362-1.116,1.453,1.453,0,0,1,1.046-.468h27.74a1.417,1.417,0,0,1,1.048.468,1.58,1.58,0,0,1,.38,1.116c0,.026-.042.5-.106,1.294-.284,3.526-1.074,13.348-1.586,18-.362,3.424-2.608,5.576-5.862,5.654-2.512.058-5.1.078-7.744.078-2.492,0-5.022-.02-7.61-.078C218.014,430.864,215.77,428.75,215.388,425.268Z" transform="translate(-211 -391)" fill="#e32144" fill-rule="evenodd"/>
</svg>
