<svg xmlns="http://www.w3.org/2000/svg" width="42.728" height="40" viewBox="0 0 42.728 40"><g transform="translate(-2.481 -5.525)"><path d="M35.622,42.629l-6.968-3.6a2.438,2.438,0,0,0-3.057.674L23.125,42.9a26.572,26.572,0,0,1-6.474-4.765,25.029,25.029,0,0,1-4.765-6.519l3.147-2.473a2.438,2.438,0,0,0,.674-3.057l-3.6-6.923A2.459,2.459,0,0,0,10.537,17.9a2.548,2.548,0,0,0-1.978.315L4.108,21.185A3.634,3.634,0,0,0,2.49,24.422a24.431,24.431,0,0,0,.539,4,33.193,33.193,0,0,0,8.811,14.521,33.193,33.193,0,0,0,14.521,8.811,24.431,24.431,0,0,0,4,.539h.225a3.681,3.681,0,0,0,3.057-1.663l2.877-4.5a2.548,2.548,0,0,0,.315-1.978A2.193,2.193,0,0,0,35.622,42.629Z" transform="translate(0 -6.77)" fill="#8a8aa5"/><path d="M66.817,22.642,57.826,7.177a3.371,3.371,0,0,0-5.8,0L43.035,22.642a3.345,3.345,0,0,0,2.877,5.035H63.9A3.35,3.35,0,0,0,66.817,22.642ZM53.6,10.729a1.349,1.349,0,1,1,2.7,0v7.193a1.349,1.349,0,1,1-2.7,0ZM54.949,24.71a1.888,1.888,0,1,1,1.888-1.888A1.9,1.9,0,0,1,54.949,24.71Z" transform="translate(-22.069 0)" fill="#f36e32"/></g></svg>