<svg xmlns="http://www.w3.org/2000/svg" width="76" height="76" viewBox="0 0 76 76"><g transform="translate(-1063 -774)"><rect width="76" height="76" rx="21" transform="translate(1063 774)" fill="#f36e32" opacity="0.09"/><path d="M38.747,17.279V13.363a10.863,10.863,0,1,0-21.726,0v3.916A5.7,5.7,0,0,0,11.8,23.005V36.732A5.75,5.75,0,0,0,17.568,42.5H38.242a5.75,5.75,0,0,0,5.768-5.768V23.005A5.737,5.737,0,0,0,38.747,17.279Zm-8.337,17.6a.65.65,0,0,1-.632.8H25.947a.65.65,0,0,1-.632-.8l1.263-4.968a3.027,3.027,0,0,1-1.811-2.779,3.074,3.074,0,1,1,4.337,2.779Zm2.821-17.642H22.537V13.405a5.347,5.347,0,1,1,10.695,0Z" transform="translate(1073.2 789.5)" fill="#f36e32"/></g></svg>