<svg xmlns="http://www.w3.org/2000/svg" xmlns:xlink="http://www.w3.org/1999/xlink" width="1004.884" height="1002.993" viewBox="0 0 1004.884 1002.993">
  <defs>
    <clipPath id="clip-path">
      <path id="Path_470" data-name="Path 470" d="M5118.769-3694.766c-51.353,237.752-173.111,417.308-365.05,534.687,49.755-63.189,109.829-133.3,132.729-177,28.759-54.389-17.441-72.962,51.673-121.692C5031.761-3524.463,5088.066-3619.594,5118.769-3694.766Z" transform="translate(-4753.719 3694.766)" fill="rgba(156,156,173,0.03)"/>
    </clipPath>
    <clipPath id="clip-path-2">
      <path id="Path_472" data-name="Path 472" d="M6066.029-3458.685c69.395,48.757,22.874,67.291,51.633,121.679,23.22,43.71,82.708,113.784,132.743,177-192.125-117.591-313.87-297.2-365.077-534.673h0c30.41,75.132,87.342,170.276,180.7,235.995" transform="translate(-5885.328 3694.68)" fill="rgba(156,156,173,0.03)"/>
    </clipPath>
    <clipPath id="clip-path-3">
      <path id="Path_474" data-name="Path 474" d="M5145.923-3762.813c-2.29,12.249-4.806,24.951-7.389,36.88-21.982,79.26-83.693,177.333-176.974,243.371-69.474,48.744-19.226,70.632-47.958,125.367-23.26,43.71-81.669,112.492-140.132,165.936-10.971,6.617-21.542,12.129-33.166,18.44,82.988-140.865,13.66-256.672,143.808-320.807C4990.026-3545.8,5112.291-3655.846,5145.923-3762.813Z" transform="translate(-4740.305 3762.813)" fill="rgba(156,156,173,0.03)"/>
    </clipPath>
    <clipPath id="clip-path-4">
      <path id="Path_476" data-name="Path 476" d="M6084.128-3493.625c130.214,64.135,60.793,179.942,143.821,320.807-11.317-6.311-22.155-11.81-33.206-18.44-58.4-53.443-117.192-122.225-140.119-165.936-29.052-54.722,21.2-76.624-47.932-125.367-93.652-66.039-155.351-164.111-176.973-243.371-2.609-11.93-5.433-24.631-7.376-36.88,33.285,106.914,155.537,216.982,261.784,269.188" transform="translate(-5822.344 3762.813)" fill="rgba(156,156,173,0.03)"/>
    </clipPath>
    <clipPath id="clip-path-5">
      <path id="Path_478" data-name="Path 478" d="M4960.782-4354.439c-61.991,31.155-127.79,67.889-191.738,95.889-13.887-16.683-36.295-20.064-66.372-3.7,88.167-60.767,164.538-92.187,228.646-92.187,9.64,0,19.905-1.479,29.465,0" transform="translate(-4702.672 4355.097)" fill="rgba(156,156,173,0.03)"/>
    </clipPath>
    <clipPath id="clip-path-6">
      <path id="Path_480" data-name="Path 480" d="M6396.688-4262.742c-30.01-16.336-52.458-12.955-66.385,3.688-63.589-27.96-130.027-61.032-191.726-92.187,9.507-1.478,19.865-3.7,29.479-3.688,63.935,0,140.252,31.449,228.632,92.188" transform="translate(-6138.578 4354.93)" fill="rgba(156,156,173,0.03)"/>
    </clipPath>
    <clipPath id="clip-path-7">
      <path id="Path_482" data-name="Path 482" d="M4973.381-4141.194c-19.026,152.528-107.367,254.9-269.188,302.38-1.265.359-2.689-.306-3.661,0,61.059-25.177,79.006-77.689,84.8-147.5l18.44-206.5c2.277-25.137-3.142-48.85-14.739-62.684,53.936-47.638,121.106-81.936,191.738-95.862,2.8,69.833-.932,140.572-7.389,210.166" transform="translate(-4700.532 4351.359)" fill="rgba(156,156,173,0.03)"/>
    </clipPath>
    <clipPath id="clip-path-8">
      <path id="Path_484" data-name="Path 484" d="M6287.947-4255.5c-11.637,13.833-16.7,37.546-14.779,62.684l18.454,210.192c5.8,69.807,23.459,118.63,84.785,143.808-1.278-.306-2.37.359-3.675,0-168.905-44.017-250.148-145.432-269.161-302.38-6.364-69.607-10.278-140.333-7.35-210.166,70.459,13.993,137.855,48.277,191.726,95.862" transform="translate(-6095.233 4351.359)" fill="rgba(156,156,173,0.03)"/>
    </clipPath>
    <clipPath id="clip-path-9">
      <path id="Path_486" data-name="Path 486" d="M5705.642-4357.9c-66.065-.945-152.675,31.714-254.422,92.2-27.48,16.35-54.762,34.563-84.812,55.307-26.549,18.228-70.18,45.708-110.615,62.684-38.558,16.058-60.659,19.386-99.551,3.688-41.42-16.683-86.822-47.506-114.343-66.372-30.01-20.743-57.584-38.957-84.771-55.307-101.841-60.367-188.689-89.459-254.449-88.5,17.255-5.18,37.293-11.331,55.308-11.051,81.217-.054,181.66,43.164,243.358,81.1,110.042,67.956,163.286,98.126,202.8,121.692,39.5-23.566,92.467-53.736,202.829-121.692,61.445-37.933,162.021-81.1,243.357-81.1,18.081-.28,38.013,5.871,55.308,11.051" transform="translate(-4702.68 4365.255)" fill="rgba(156,156,173,0.03)"/>
    </clipPath>
    <clipPath id="clip-path-10">
      <path id="Path_488" data-name="Path 488" d="M4776.357-4370.9c19.625,1.97,25.829,5.139,77.422,22.128,121.2,39.916,134.114,38.132,147.481,55.308,4.993,6.417,16.4,23.766,29.479,22.115,11.17-1.4,15.657-17.2,22.154-14.739,5.379,2.01,2.623,12.6,11.038,22.128,3.754,3.941,9.626,9.293,14.752,11.038,18.32,8.082,28.559,27.054,36.894,36.907,23.074,27.254,72.723,19.2,117.991,11.051,23.938-4.313,47.346-8.268,62.67-7.363a19.815,19.815,0,0,0,14.792-3.688c5.832-4.9,4.993-13.913,7.323-22.142,3.795-13.141,15.418-24.485,25.829-29.491,10-4.82,20.611-2.477,29.531,0,8.574,2.383,15.151,4.127,18.4,0,3.582-4.554-3.408-13.78-3.661-18.44-2.21-39.916,312.605-97.607,317.105-77.449,2.489,11.078-133.4,25.763-254.422,129.1-27.494,23.486-54.775,51.287-84.8,81.1-26.575,26.242-70.18,67.783-110.614,92.188-38.572,23.034-60.646,26.282-99.578,3.688-41.447-23.926-86.795-68.755-114.289-95.876-30.063-29.757-57.638-57.611-84.825-81.1-101.787-86.742-188.663-130.44-254.422-129.1,16.736-7.323,36.974-7.682,55.254-7.362,6.165.013,12.369-.626,18.494,0" transform="translate(-4702.609 4371.177)" fill="rgba(156,156,173,0.03)"/>
    </clipPath>
    <clipPath id="clip-path-11">
      <path id="Path_490" data-name="Path 490" d="M5698.119-4479.456c-115.342-36.268-188.277-11.117-258.11,14.7-59.675,22.168-117.538,42.525-199.114,25.87-81.417,16.656-139.095-3.7-199.115-25.87-70.272-25.816-142.582-50.967-258.123-14.7,143.008-67.636,299.038-103.651,457.238-103.239,158.187-.413,314.229,35.6,457.225,103.239" transform="translate(-4783.656 4582.698)" fill="rgba(156,156,173,0.03)"/>
    </clipPath>
    <clipPath id="clip-path-12">
      <path id="Path_492" data-name="Path 492" d="M5680.558-4415.517c6.937,3.476,15.178,3.928,22.114,7.363-100.043-27.8-184.5,15.6-265.485,59.021-71.191,38.119-140.187,76.478-213.881,66.345-73.561,10.173-142.928-28.226-213.854-66.345-80.737-43.418-165.615-86.822-265.5-59.021,6.617-3.476,15.472-3.915,22.115-7.363,198.049-78.927,268.748,18.387,420.384,33.192,29.118,2.716,59.448.094,88.486-3.687,101.321-13.168,167.081-62.684,265.5-62.684,40.288,0,84.252,10.891,140.119,33.179" transform="translate(-4743.953 4448.695)" fill="rgba(156,156,173,0.03)"/>
    </clipPath>
    <clipPath id="clip-path-13">
      <path id="Path_494" data-name="Path 494" d="M5591.353-4402.738c31.395.08,62.923,3.289,92.188,14.766,7.283,3.741,14.846,7.283,22.1,11.024-91.988-16.949-217,39.157-291.275,88.526-68.636,45.255-117.592,77.941-154.911,95.849-45.854,22.062-60.78,21.742-106.9,0-37.32-17.575-88.047-49.01-158.6-95.849-74.586-49.369-199.607-105.516-291.276-88.526,6.95-3.742,14.846-7.283,22.115-11.024,172.979-66.345,298.732,77.289,438.8,110.628,30.689,7.23,46.786,7.2,77.436,0,114.716-26.695,221.19-125.394,350.325-125.394h0" transform="translate(-4702.68 4405.263)" fill="rgba(156,156,173,0.03)"/>
    </clipPath>
    <clipPath id="clip-path-14">
      <path id="Path_496" data-name="Path 496" d="M5133.879-3957.336c-.306,2.53.319,4.86,0,7.376-10.012,145.578-98.552,263.476-265.5,324.495-95.956,35.216-134.527,66.971-154.884,147.509-.653-111.653,50.74-145.152,151.2-180.7C5024.249-3715.256,5112.576-3813.529,5133.879-3957.336Z" transform="translate(-4713.489 3957.336)" fill="rgba(156,156,173,0.03)"/>
    </clipPath>
    <clipPath id="clip-path-15">
      <path id="Path_498" data-name="Path 498" d="M6089.05-3658.657c100.709,35.549,152.129,69.034,151.144,180.7-20-80.538-58.636-112.292-154.871-147.509-166.935-61.019-255.793-178.917-265.486-324.495-.319-2.517.293-4.847,0-7.376,21.622,143.714,109.923,241.973,269.214,298.679" transform="translate(-5819.741 3957.336)" fill="rgba(156,156,173,0.03)"/>
    </clipPath>
    <clipPath id="clip-path-16">
      <path id="Path_500" data-name="Path 500" d="M5120.129-3847.981c-22.567,114.143-148.308,226.888-258.11,276.577-132.1,60.38-43.83,179.449-147.5,313.417v-210.179c3.875-80.524,53-126.059,151.21-162.261,165.749-60.473,253.544-169.836,269.161-309.729-3.541,31.927-9.014,60.553-14.766,92.174m14.766-95.863c-.066.426.066,3.235,0,3.688C5134.961-3940.609,5134.882-3943.4,5134.895-3943.844Z" transform="translate(-4714.523 3943.844)" fill="rgba(156,156,173,0.03)"/>
    </clipPath>
    <clipPath id="clip-path-17">
      <path id="Path_502" data-name="Path 502" d="M6088.954-3630.413c98.525,36.2,147.654,81.736,151.223,162.247v210.192c-103.372-133.968-15.1-253.051-147.5-313.444-109.47-49.662-235.849-162.42-258.137-276.55-6.151-32.074-11.53-63.5-14.778-95.876,15.2,140.559,102.865,252.771,269.188,313.431" transform="translate(-5819.766 3943.844)" fill="rgba(156,156,173,0.03)"/>
    </clipPath>
  </defs>
  <g id="Group_1318" data-name="Group 1318" transform="translate(0 0)">
    <g id="Group_444" data-name="Group 444" transform="translate(609.396 449.871)">
      <path id="Path_469" data-name="Path 469" d="M5118.769-3694.766c-51.353,237.752-173.111,417.308-365.05,534.687,49.755-63.189,109.829-133.3,132.729-177,28.759-54.389-17.441-72.962,51.673-121.692C5031.761-3524.463,5088.066-3619.594,5118.769-3694.766Z" transform="translate(-4753.719 3694.766)" fill="rgba(156,156,173,0.03)"/>
      <g id="Group_443" data-name="Group 443" transform="translate(0 0)" clip-path="url(#clip-path)">
        <rect id="Rectangle_107" data-name="Rectangle 107" width="364.173" height="509.842" transform="translate(-14.359 7.38)" fill="rgba(156,156,173,0.03)"/>
      </g>
    </g>
    <g id="Group_446" data-name="Group 446" transform="translate(30.47 449.87)">
      <path id="Path_471" data-name="Path 471" d="M6066.029-3458.685c69.395,48.757,22.874,67.291,51.633,121.679,23.22,43.71,82.708,113.784,132.743,177-192.125-117.591-313.87-297.2-365.077-534.673h0c30.41,75.132,87.342,170.276,180.7,235.995" transform="translate(-5885.328 3694.68)" fill="rgba(156,156,173,0.03)"/>
      <g id="Group_445" data-name="Group 445" transform="translate(0 0)" clip-path="url(#clip-path-2)">
        <rect id="Rectangle_108" data-name="Rectangle 108" width="400.59" height="509.842" transform="translate(-18.111 7.382)" fill="rgba(156,156,173,0.03)"/>
      </g>
    </g>
    <g id="Group_448" data-name="Group 448" transform="translate(576.209 412.995)">
      <path id="Path_473" data-name="Path 473" d="M5145.923-3762.813c-2.29,12.249-4.806,24.951-7.389,36.88-21.982,79.26-83.693,177.333-176.974,243.371-69.474,48.744-19.226,70.632-47.958,125.367-23.26,43.71-81.669,112.492-140.132,165.936-10.971,6.617-21.542,12.129-33.166,18.44,82.988-140.865,13.66-256.672,143.808-320.807C4990.026-3545.8,5112.291-3655.846,5145.923-3762.813Z" transform="translate(-4740.305 3762.813)" fill="rgba(156,156,173,0.03)"/>
      <g id="Group_447" data-name="Group 447" transform="translate(0 0)" clip-path="url(#clip-path-3)">
        <rect id="Rectangle_109" data-name="Rectangle 109" width="437.008" height="582.677" transform="translate(-17.591 7.838)" fill="rgba(156,156,173,0.03)"/>
      </g>
    </g>
    <g id="Group_450" data-name="Group 450" transform="translate(23.095 412.995)">
      <path id="Path_475" data-name="Path 475" d="M6084.128-3493.625c130.214,64.135,60.793,179.942,143.821,320.807-11.317-6.311-22.155-11.81-33.206-18.44-58.4-53.443-117.192-122.225-140.119-165.936-29.052-54.722,21.2-76.624-47.932-125.367-93.652-66.039-155.351-164.111-176.973-243.371-2.609-11.93-5.433-24.631-7.376-36.88,33.285,106.914,155.537,216.982,261.784,269.188" transform="translate(-5822.344 3762.813)" fill="rgba(156,156,173,0.03)"/>
      <g id="Group_449" data-name="Group 449" transform="translate(0 0)" clip-path="url(#clip-path-4)">
        <rect id="Rectangle_110" data-name="Rectangle 110" width="400.59" height="582.677" transform="translate(-10.736 7.838)" fill="rgba(156,156,173,0.03)"/>
      </g>
    </g>
    <g id="Group_452" data-name="Group 452" transform="translate(745.831 121.024)">
      <path id="Path_477" data-name="Path 477" d="M4960.782-4354.439c-61.991,31.155-127.79,67.889-191.738,95.889-13.887-16.683-36.295-20.064-66.372-3.7,88.167-60.767,164.538-92.187,228.646-92.187,9.64,0,19.905-1.479,29.465,0" transform="translate(-4702.672 4355.097)" fill="rgba(156,156,173,0.03)"/>
      <g id="Group_451" data-name="Group 451" transform="translate(0 0)" clip-path="url(#clip-path-5)">
        <rect id="Rectangle_111" data-name="Rectangle 111" width="254.921" height="72.835" transform="translate(-5.126 8.473)" fill="rgba(156,156,173,0.03)"/>
      </g>
    </g>
    <g id="Group_454" data-name="Group 454" transform="translate(0.97 121.687)">
      <path id="Path_479" data-name="Path 479" d="M6396.688-4262.742c-30.01-16.336-52.458-12.955-66.385,3.688-63.589-27.96-130.027-61.032-191.726-92.187,9.507-1.478,19.865-3.7,29.479-3.688,63.935,0,140.252,31.449,228.632,92.188" transform="translate(-6138.578 4354.93)" fill="rgba(156,156,173,0.03)"/>
      <g id="Group_453" data-name="Group 453" transform="translate(0 0)" clip-path="url(#clip-path-6)">
        <rect id="Rectangle_112" data-name="Rectangle 112" width="254.921" height="72.835" transform="translate(11.389 7.808)" fill="rgba(156,156,173,0.03)"/>
      </g>
    </g>
    <g id="Group_456" data-name="Group 456" transform="translate(723.706 121.69)">
      <path id="Path_481" data-name="Path 481" d="M4973.381-4141.194c-19.026,152.528-107.367,254.9-269.188,302.38-1.265.359-2.689-.306-3.661,0,61.059-25.177,79.006-77.689,84.8-147.5l18.44-206.5c2.277-25.137-3.142-48.85-14.739-62.684,53.936-47.638,121.106-81.936,191.738-95.862,2.8,69.833-.932,140.572-7.389,210.166" transform="translate(-4700.532 4351.359)" fill="rgba(156,156,173,0.03)"/>
      <g id="Group_455" data-name="Group 455" transform="translate(0 0)" clip-path="url(#clip-path-7)">
        <rect id="Rectangle_113" data-name="Rectangle 113" width="254.921" height="509.842" transform="translate(16.999 7.805)" fill="rgba(156,156,173,0.03)"/>
      </g>
    </g>
    <g id="Group_458" data-name="Group 458" transform="translate(0 121.69)">
      <path id="Path_483" data-name="Path 483" d="M6287.947-4255.5c-11.637,13.833-16.7,37.546-14.779,62.684l18.454,210.192c5.8,69.807,23.459,118.63,84.785,143.808-1.278-.306-2.37.359-3.675,0-168.905-44.017-250.148-145.432-269.161-302.38-6.364-69.607-10.278-140.333-7.35-210.166,70.459,13.993,137.855,48.277,191.726,95.862" transform="translate(-6095.233 4351.359)" fill="rgba(156,156,173,0.03)"/>
      <g id="Group_457" data-name="Group 457" transform="translate(0 0)" clip-path="url(#clip-path-8)">
        <rect id="Rectangle_114" data-name="Rectangle 114" width="254.921" height="509.842" transform="translate(12.358 7.805)" fill="rgba(156,156,173,0.03)"/>
      </g>
    </g>
    <g id="Group_460" data-name="Group 460" transform="translate(0.97 114.307)">
      <path id="Path_485" data-name="Path 485" d="M5705.642-4357.9c-66.065-.945-152.675,31.714-254.422,92.2-27.48,16.35-54.762,34.563-84.812,55.307-26.549,18.228-70.18,45.708-110.615,62.684-38.558,16.058-60.659,19.386-99.551,3.688-41.42-16.683-86.822-47.506-114.343-66.372-30.01-20.743-57.584-38.957-84.771-55.307-101.841-60.367-188.689-89.459-254.449-88.5,17.255-5.18,37.293-11.331,55.308-11.051,81.217-.054,181.66,43.164,243.358,81.1,110.042,67.956,163.286,98.126,202.8,121.692,39.5-23.566,92.467-53.736,202.829-121.692,61.445-37.933,162.021-81.1,243.357-81.1,18.081-.28,38.013,5.871,55.308,11.051" transform="translate(-4702.68 4365.255)" fill="rgba(156,156,173,0.03)"/>
      <g id="Group_459" data-name="Group 459" transform="translate(0)" clip-path="url(#clip-path-9)">
        <rect id="Rectangle_115" data-name="Rectangle 115" width="983.267" height="218.504" transform="translate(11.389 15.19)" fill="rgba(156,156,173,0.03)"/>
      </g>
    </g>
    <g id="Group_462" data-name="Group 462" transform="translate(0.97 114.033)">
      <path id="Path_487" data-name="Path 487" d="M4776.357-4370.9c19.625,1.97,25.829,5.139,77.422,22.128,121.2,39.916,134.114,38.132,147.481,55.308,4.993,6.417,16.4,23.766,29.479,22.115,11.17-1.4,15.657-17.2,22.154-14.739,5.379,2.01,2.623,12.6,11.038,22.128,3.754,3.941,9.626,9.293,14.752,11.038,18.32,8.082,28.559,27.054,36.894,36.907,23.074,27.254,72.723,19.2,117.991,11.051,23.938-4.313,47.346-8.268,62.67-7.363a19.815,19.815,0,0,0,14.792-3.688c5.832-4.9,4.993-13.913,7.323-22.142,3.795-13.141,15.418-24.485,25.829-29.491,10-4.82,20.611-2.477,29.531,0,8.574,2.383,15.151,4.127,18.4,0,3.582-4.554-3.408-13.78-3.661-18.44-2.21-39.916,312.605-97.607,317.105-77.449,2.489,11.078-133.4,25.763-254.422,129.1-27.494,23.486-54.775,51.287-84.8,81.1-26.575,26.242-70.18,67.783-110.614,92.188-38.572,23.034-60.646,26.282-99.578,3.688-41.447-23.926-86.795-68.755-114.289-95.876-30.063-29.757-57.638-57.611-84.825-81.1-101.787-86.742-188.663-130.44-254.422-129.1,16.736-7.323,36.974-7.682,55.254-7.362,6.165.013,12.369-.626,18.494,0" transform="translate(-4702.609 4371.177)" fill="rgba(156,156,173,0.03)"/>
      <g id="Group_461" data-name="Group 461" transform="translate(0)" clip-path="url(#clip-path-10)">
        <rect id="Rectangle_116" data-name="Rectangle 116" width="983.267" height="364.173" transform="translate(11.389 -20.955)" fill="rgba(156,156,173,0.03)"/>
      </g>
    </g>
    <g id="Group_464" data-name="Group 464" transform="translate(45.22)">
      <path id="Path_489" data-name="Path 489" d="M5698.119-4479.456c-115.342-36.268-188.277-11.117-258.11,14.7-59.675,22.168-117.538,42.525-199.114,25.87-81.417,16.656-139.095-3.7-199.115-25.87-70.272-25.816-142.582-50.967-258.123-14.7,143.008-67.636,299.038-103.651,457.238-103.239,158.187-.413,314.229,35.6,457.225,103.239" transform="translate(-4783.656 4582.698)" fill="rgba(156,156,173,0.03)"/>
      <g id="Group_463" data-name="Group 463" transform="translate(0 0)" clip-path="url(#clip-path-11)">
        <rect id="Rectangle_117" data-name="Rectangle 117" width="910.432" height="182.086" transform="translate(3.556 -16.173)" fill="rgba(156,156,173,0.03)"/>
      </g>
    </g>
    <g id="Group_466" data-name="Group 466" transform="translate(23.095 70.067)">
      <path id="Path_491" data-name="Path 491" d="M5680.558-4415.517c6.937,3.476,15.178,3.928,22.114,7.363-100.043-27.8-184.5,15.6-265.485,59.021-71.191,38.119-140.187,76.478-213.881,66.345-73.561,10.173-142.928-28.226-213.854-66.345-80.737-43.418-165.615-86.822-265.5-59.021,6.617-3.476,15.472-3.915,22.115-7.363,198.049-78.927,268.748,18.387,420.384,33.192,29.118,2.716,59.448.094,88.486-3.687,101.321-13.168,167.081-62.684,265.5-62.684,40.288,0,84.252,10.891,140.119,33.179" transform="translate(-4743.953 4448.695)" fill="rgba(156,156,173,0.03)"/>
      <g id="Group_465" data-name="Group 465" transform="translate(0 0)" clip-path="url(#clip-path-12)">
        <rect id="Rectangle_118" data-name="Rectangle 118" width="983.267" height="218.504" transform="translate(-10.736 -49.821)" fill="rgba(156,156,173,0.03)"/>
      </g>
    </g>
    <g id="Group_468" data-name="Group 468" transform="translate(0.97 93.334)">
      <path id="Path_493" data-name="Path 493" d="M5591.353-4402.738c31.395.08,62.923,3.289,92.188,14.766,7.283,3.741,14.846,7.283,22.1,11.024-91.988-16.949-217,39.157-291.275,88.526-68.636,45.255-117.592,77.941-154.911,95.849-45.854,22.062-60.78,21.742-106.9,0-37.32-17.575-88.047-49.01-158.6-95.849-74.586-49.369-199.607-105.516-291.276-88.526,6.95-3.742,14.846-7.283,22.115-11.024,172.979-66.345,298.732,77.289,438.8,110.628,30.689,7.23,46.786,7.2,77.436,0,114.716-26.695,221.19-125.394,350.325-125.394h0" transform="translate(-4702.68 4405.263)" fill="rgba(156,156,173,0.03)"/>
      <g id="Group_467" data-name="Group 467" transform="translate(0 0)" clip-path="url(#clip-path-13)">
        <rect id="Rectangle_119" data-name="Rectangle 119" width="983.267" height="254.921" transform="translate(11.389 -36.673)" fill="rgba(156,156,173,0.03)"/>
      </g>
    </g>
    <g id="Group_470" data-name="Group 470" transform="translate(576.204 320.81)">
      <path id="Path_495" data-name="Path 495" d="M5133.879-3957.336c-.306,2.53.319,4.86,0,7.376-10.012,145.578-98.552,263.476-265.5,324.495-95.956,35.216-134.527,66.971-154.884,147.509-.653-111.653,50.74-145.152,151.2-180.7C5024.249-3715.256,5112.576-3813.529,5133.879-3957.336Z" transform="translate(-4713.489 3957.336)" fill="rgba(156,156,173,0.03)"/>
      <g id="Group_469" data-name="Group 469" transform="translate(0 0)" clip-path="url(#clip-path-14)">
        <rect id="Rectangle_120" data-name="Rectangle 120" width="437.008" height="473.425" transform="translate(-17.586 -9.227)" fill="rgba(156,156,173,0.03)"/>
      </g>
    </g>
    <g id="Group_472" data-name="Group 472" transform="translate(8.253 320.81)">
      <path id="Path_497" data-name="Path 497" d="M6089.05-3658.657c100.709,35.549,152.129,69.034,151.144,180.7-20-80.538-58.636-112.292-154.871-147.509-166.935-61.019-255.793-178.917-265.486-324.495-.319-2.517.293-4.847,0-7.376,21.622,143.714,109.923,241.973,269.214,298.679" transform="translate(-5819.741 3957.336)" fill="rgba(156,156,173,0.03)"/>
      <g id="Group_471" data-name="Group 471" transform="translate(0)" clip-path="url(#clip-path-15)">
        <rect id="Rectangle_121" data-name="Rectangle 121" width="400.59" height="473.425" transform="translate(4.103 -9.227)" fill="rgba(156,156,173,0.03)"/>
      </g>
    </g>
    <g id="Group_474" data-name="Group 474" transform="translate(576.209 317.123)">
      <path id="Path_499" data-name="Path 499" d="M5120.129-3847.981c-22.567,114.143-148.308,226.888-258.11,276.577-132.1,60.38-43.83,179.449-147.5,313.417v-210.179c3.875-80.524,53-126.059,151.21-162.261,165.749-60.473,253.544-169.836,269.161-309.729-3.541,31.927-9.014,60.553-14.766,92.174m14.766-95.863c-.066.426.066,3.235,0,3.688C5134.961-3940.609,5134.882-3943.4,5134.895-3943.844Z" transform="translate(-4714.523 3943.844)" fill="rgba(156,156,173,0.03)"/>
      <g id="Group_473" data-name="Group 473" transform="translate(0)" clip-path="url(#clip-path-16)">
        <rect id="Rectangle_122" data-name="Rectangle 122" width="437.008" height="691.929" transform="translate(-17.591 -5.541)" fill="rgba(156,156,173,0.03)"/>
      </g>
    </g>
    <g id="Group_476" data-name="Group 476" transform="translate(8.345 317.122)">
      <path id="Path_501" data-name="Path 501" d="M6088.954-3630.413c98.525,36.2,147.654,81.736,151.223,162.247v210.192c-103.372-133.968-15.1-253.051-147.5-313.444-109.47-49.662-235.849-162.42-258.137-276.55-6.151-32.074-11.53-63.5-14.778-95.876,15.2,140.559,102.865,252.771,269.188,313.431" transform="translate(-5819.766 3943.844)" fill="rgba(156,156,173,0.03)"/>
      <g id="Group_475" data-name="Group 475" transform="translate(0 0)" clip-path="url(#clip-path-17)">
        <rect id="Rectangle_123" data-name="Rectangle 123" width="400.59" height="691.929" transform="translate(4.014 -5.54)" fill="rgba(156,156,173,0.03)"/>
      </g>
    </g>
    <g id="Group_478" data-name="Group 478" transform="translate(609.396 449.871)">
      <path id="Path_503" data-name="Path 503" d="M5118.769-3694.766c-51.353,237.752-173.111,417.308-365.05,534.687,49.755-63.189,109.829-133.3,132.729-177,28.759-54.389-17.441-72.962,51.673-121.692C5031.761-3524.463,5088.066-3619.594,5118.769-3694.766Z" transform="translate(-4753.719 3694.766)" fill="rgba(156,156,173,0.03)"/>
      <g id="Group_477" data-name="Group 477" transform="translate(0 0)" clip-path="url(#clip-path)">
        <rect id="Rectangle_124" data-name="Rectangle 124" width="364.173" height="509.842" transform="translate(-14.359 7.38)" fill="rgba(156,156,173,0.03)"/>
      </g>
    </g>
    <g id="Group_480" data-name="Group 480" transform="translate(30.47 449.87)">
      <path id="Path_505" data-name="Path 505" d="M6066.029-3458.685c69.395,48.757,22.874,67.291,51.633,121.679,23.22,43.71,82.708,113.784,132.743,177-192.125-117.591-313.87-297.2-365.077-534.673h0c30.41,75.132,87.342,170.276,180.7,235.995" transform="translate(-5885.328 3694.68)" fill="rgba(156,156,173,0.03)"/>
      <g id="Group_479" data-name="Group 479" transform="translate(0 0)" clip-path="url(#clip-path-2)">
        <rect id="Rectangle_125" data-name="Rectangle 125" width="400.59" height="509.842" transform="translate(-18.111 7.382)" fill="rgba(156,156,173,0.03)"/>
      </g>
    </g>
    <g id="Group_482" data-name="Group 482" transform="translate(576.209 412.995)">
      <path id="Path_507" data-name="Path 507" d="M5145.923-3762.813c-2.29,12.249-4.806,24.951-7.389,36.88-21.982,79.26-83.693,177.333-176.974,243.371-69.474,48.744-19.226,70.632-47.958,125.367-23.26,43.71-81.669,112.492-140.132,165.936-10.971,6.617-21.542,12.129-33.166,18.44,82.988-140.865,13.66-256.672,143.808-320.807C4990.026-3545.8,5112.291-3655.846,5145.923-3762.813Z" transform="translate(-4740.305 3762.813)" fill="rgba(156,156,173,0.03)"/>
      <g id="Group_481" data-name="Group 481" transform="translate(0 0)" clip-path="url(#clip-path-3)">
        <rect id="Rectangle_126" data-name="Rectangle 126" width="437.008" height="582.677" transform="translate(-17.591 7.838)" fill="rgba(156,156,173,0.03)"/>
      </g>
    </g>
    <g id="Group_484" data-name="Group 484" transform="translate(23.095 412.995)">
      <path id="Path_509" data-name="Path 509" d="M6084.128-3493.625c130.214,64.135,60.793,179.942,143.821,320.807-11.317-6.311-22.155-11.81-33.206-18.44-58.4-53.443-117.192-122.225-140.119-165.936-29.052-54.722,21.2-76.624-47.932-125.367-93.652-66.039-155.351-164.111-176.973-243.371-2.609-11.93-5.433-24.631-7.376-36.88,33.285,106.914,155.537,216.982,261.784,269.188" transform="translate(-5822.344 3762.813)" fill="rgba(156,156,173,0.03)"/>
      <g id="Group_483" data-name="Group 483" transform="translate(0 0)" clip-path="url(#clip-path-4)">
        <rect id="Rectangle_127" data-name="Rectangle 127" width="400.59" height="582.677" transform="translate(-10.736 7.838)" fill="rgba(156,156,173,0.03)"/>
      </g>
    </g>
    <g id="Group_486" data-name="Group 486" transform="translate(745.831 121.024)">
      <path id="Path_511" data-name="Path 511" d="M4960.782-4354.439c-61.991,31.155-127.79,67.889-191.738,95.889-13.887-16.683-36.295-20.064-66.372-3.7,88.167-60.767,164.538-92.187,228.646-92.187,9.64,0,19.905-1.479,29.465,0" transform="translate(-4702.672 4355.097)" fill="rgba(156,156,173,0.03)"/>
      <g id="Group_485" data-name="Group 485" transform="translate(0 0)" clip-path="url(#clip-path-5)">
        <rect id="Rectangle_128" data-name="Rectangle 128" width="254.921" height="72.835" transform="translate(-5.126 8.473)" fill="rgba(156,156,173,0.03)"/>
      </g>
    </g>
    <g id="Group_488" data-name="Group 488" transform="translate(0.97 121.687)">
      <path id="Path_513" data-name="Path 513" d="M6396.688-4262.742c-30.01-16.336-52.458-12.955-66.385,3.688-63.589-27.96-130.027-61.032-191.726-92.187,9.507-1.478,19.865-3.7,29.479-3.688,63.935,0,140.252,31.449,228.632,92.188" transform="translate(-6138.578 4354.93)" fill="rgba(156,156,173,0.03)"/>
      <g id="Group_487" data-name="Group 487" transform="translate(0 0)" clip-path="url(#clip-path-6)">
        <rect id="Rectangle_129" data-name="Rectangle 129" width="254.921" height="72.835" transform="translate(11.389 7.808)" fill="rgba(156,156,173,0.03)"/>
      </g>
    </g>
    <g id="Group_490" data-name="Group 490" transform="translate(723.706 121.69)">
      <path id="Path_515" data-name="Path 515" d="M4973.381-4141.194c-19.026,152.528-107.367,254.9-269.188,302.38-1.265.359-2.689-.306-3.661,0,61.059-25.177,79.006-77.689,84.8-147.5l18.44-206.5c2.277-25.137-3.142-48.85-14.739-62.684,53.936-47.638,121.106-81.936,191.738-95.862,2.8,69.833-.932,140.572-7.389,210.166" transform="translate(-4700.532 4351.359)" fill="rgba(156,156,173,0.03)"/>
      <g id="Group_489" data-name="Group 489" transform="translate(0 0)" clip-path="url(#clip-path-7)">
        <rect id="Rectangle_130" data-name="Rectangle 130" width="254.921" height="509.842" transform="translate(16.999 7.805)" fill="rgba(156,156,173,0.03)"/>
      </g>
    </g>
    <g id="Group_492" data-name="Group 492" transform="translate(0 121.69)">
      <path id="Path_517" data-name="Path 517" d="M6287.947-4255.5c-11.637,13.833-16.7,37.546-14.779,62.684l18.454,210.192c5.8,69.807,23.459,118.63,84.785,143.808-1.278-.306-2.37.359-3.675,0-168.905-44.017-250.148-145.432-269.161-302.38-6.364-69.607-10.278-140.333-7.35-210.166,70.459,13.993,137.855,48.277,191.726,95.862" transform="translate(-6095.233 4351.359)" fill="rgba(156,156,173,0.03)"/>
      <g id="Group_491" data-name="Group 491" transform="translate(0 0)" clip-path="url(#clip-path-8)">
        <rect id="Rectangle_131" data-name="Rectangle 131" width="254.921" height="509.842" transform="translate(12.358 7.805)" fill="rgba(156,156,173,0.03)"/>
      </g>
    </g>
    <g id="Group_494" data-name="Group 494" transform="translate(0.97 114.307)">
      <path id="Path_519" data-name="Path 519" d="M5705.642-4357.9c-66.065-.945-152.675,31.714-254.422,92.2-27.48,16.35-54.762,34.563-84.812,55.307-26.549,18.228-70.18,45.708-110.615,62.684-38.558,16.058-60.659,19.386-99.551,3.688-41.42-16.683-86.822-47.506-114.343-66.372-30.01-20.743-57.584-38.957-84.771-55.307-101.841-60.367-188.689-89.459-254.449-88.5,17.255-5.18,37.293-11.331,55.308-11.051,81.217-.054,181.66,43.164,243.358,81.1,110.042,67.956,163.286,98.126,202.8,121.692,39.5-23.566,92.467-53.736,202.829-121.692,61.445-37.933,162.021-81.1,243.357-81.1,18.081-.28,38.013,5.871,55.308,11.051" transform="translate(-4702.68 4365.255)" fill="rgba(156,156,173,0.03)"/>
      <g id="Group_493" data-name="Group 493" transform="translate(0)" clip-path="url(#clip-path-9)">
        <rect id="Rectangle_132" data-name="Rectangle 132" width="983.267" height="218.504" transform="translate(11.389 15.19)" fill="rgba(156,156,173,0.03)"/>
      </g>
    </g>
    <g id="Group_496" data-name="Group 496" transform="translate(0.97 114.033)">
      <path id="Path_521" data-name="Path 521" d="M4776.357-4370.9c19.625,1.97,25.829,5.139,77.422,22.128,121.2,39.916,134.114,38.132,147.481,55.308,4.993,6.417,16.4,23.766,29.479,22.115,11.17-1.4,15.657-17.2,22.154-14.739,5.379,2.01,2.623,12.6,11.038,22.128,3.754,3.941,9.626,9.293,14.752,11.038,18.32,8.082,28.559,27.054,36.894,36.907,23.074,27.254,72.723,19.2,117.991,11.051,23.938-4.313,47.346-8.268,62.67-7.363a19.815,19.815,0,0,0,14.792-3.688c5.832-4.9,4.993-13.913,7.323-22.142,3.795-13.141,15.418-24.485,25.829-29.491,10-4.82,20.611-2.477,29.531,0,8.574,2.383,15.151,4.127,18.4,0,3.582-4.554-3.408-13.78-3.661-18.44-2.21-39.916,312.605-97.607,317.105-77.449,2.489,11.078-133.4,25.763-254.422,129.1-27.494,23.486-54.775,51.287-84.8,81.1-26.575,26.242-70.18,67.783-110.614,92.188-38.572,23.034-60.646,26.282-99.578,3.688-41.447-23.926-86.795-68.755-114.289-95.876-30.063-29.757-57.638-57.611-84.825-81.1-101.787-86.742-188.663-130.44-254.422-129.1,16.736-7.323,36.974-7.682,55.254-7.362,6.165.013,12.369-.626,18.494,0" transform="translate(-4702.609 4371.177)" fill="rgba(156,156,173,0.03)"/>
      <g id="Group_495" data-name="Group 495" transform="translate(0)" clip-path="url(#clip-path-10)">
        <rect id="Rectangle_133" data-name="Rectangle 133" width="983.267" height="364.173" transform="translate(11.389 -20.955)" fill="rgba(156,156,173,0.03)"/>
      </g>
    </g>
    <g id="Group_498" data-name="Group 498" transform="translate(45.22)">
      <path id="Path_523" data-name="Path 523" d="M5698.119-4479.456c-115.342-36.268-188.277-11.117-258.11,14.7-59.675,22.168-117.538,42.525-199.114,25.87-81.417,16.656-139.095-3.7-199.115-25.87-70.272-25.816-142.582-50.967-258.123-14.7,143.008-67.636,299.038-103.651,457.238-103.239,158.187-.413,314.229,35.6,457.225,103.239" transform="translate(-4783.656 4582.698)" fill="rgba(156,156,173,0.03)"/>
      <g id="Group_497" data-name="Group 497" transform="translate(0 0)" clip-path="url(#clip-path-11)">
        <rect id="Rectangle_134" data-name="Rectangle 134" width="910.432" height="182.086" transform="translate(3.556 -16.173)" fill="rgba(156,156,173,0.03)"/>
      </g>
    </g>
    <g id="Group_500" data-name="Group 500" transform="translate(23.095 70.067)">
      <path id="Path_525" data-name="Path 525" d="M5680.558-4415.517c6.937,3.476,15.178,3.928,22.114,7.363-100.043-27.8-184.5,15.6-265.485,59.021-71.191,38.119-140.187,76.478-213.881,66.345-73.561,10.173-142.928-28.226-213.854-66.345-80.737-43.418-165.615-86.822-265.5-59.021,6.617-3.476,15.472-3.915,22.115-7.363,198.049-78.927,268.748,18.387,420.384,33.192,29.118,2.716,59.448.094,88.486-3.687,101.321-13.168,167.081-62.684,265.5-62.684,40.288,0,84.252,10.891,140.119,33.179" transform="translate(-4743.953 4448.695)" fill="rgba(156,156,173,0.03)"/>
      <g id="Group_499" data-name="Group 499" transform="translate(0 0)" clip-path="url(#clip-path-12)">
        <rect id="Rectangle_135" data-name="Rectangle 135" width="983.267" height="218.504" transform="translate(-10.736 -49.821)" fill="rgba(156,156,173,0.03)"/>
      </g>
    </g>
    <g id="Group_502" data-name="Group 502" transform="translate(0.97 93.334)">
      <path id="Path_527" data-name="Path 527" d="M5591.353-4402.738c31.395.08,62.923,3.289,92.188,14.766,7.283,3.741,14.846,7.283,22.1,11.024-91.988-16.949-217,39.157-291.275,88.526-68.636,45.255-117.592,77.941-154.911,95.849-45.854,22.062-60.78,21.742-106.9,0-37.32-17.575-88.047-49.01-158.6-95.849-74.586-49.369-199.607-105.516-291.276-88.526,6.95-3.742,14.846-7.283,22.115-11.024,172.979-66.345,298.732,77.289,438.8,110.628,30.689,7.23,46.786,7.2,77.436,0,114.716-26.695,221.19-125.394,350.325-125.394h0" transform="translate(-4702.68 4405.263)" fill="rgba(156,156,173,0.03)"/>
      <g id="Group_501" data-name="Group 501" transform="translate(0 0)" clip-path="url(#clip-path-13)">
        <rect id="Rectangle_136" data-name="Rectangle 136" width="983.267" height="254.921" transform="translate(11.389 -36.673)" fill="rgba(156,156,173,0.03)"/>
      </g>
    </g>
    <g id="Group_504" data-name="Group 504" transform="translate(576.204 320.81)">
      <path id="Path_529" data-name="Path 529" d="M5133.879-3957.336c-.306,2.53.319,4.86,0,7.376-10.012,145.578-98.552,263.476-265.5,324.495-95.956,35.216-134.527,66.971-154.884,147.509-.653-111.653,50.74-145.152,151.2-180.7C5024.249-3715.256,5112.576-3813.529,5133.879-3957.336Z" transform="translate(-4713.489 3957.336)" fill="rgba(156,156,173,0.03)"/>
      <g id="Group_503" data-name="Group 503" transform="translate(0 0)" clip-path="url(#clip-path-14)">
        <rect id="Rectangle_137" data-name="Rectangle 137" width="437.008" height="473.425" transform="translate(-17.586 -9.227)" fill="rgba(156,156,173,0.03)"/>
      </g>
    </g>
    <g id="Group_506" data-name="Group 506" transform="translate(8.253 320.81)">
      <path id="Path_531" data-name="Path 531" d="M6089.05-3658.657c100.709,35.549,152.129,69.034,151.144,180.7-20-80.538-58.636-112.292-154.871-147.509-166.935-61.019-255.793-178.917-265.486-324.495-.319-2.517.293-4.847,0-7.376,21.622,143.714,109.923,241.973,269.214,298.679" transform="translate(-5819.741 3957.336)" fill="rgba(156,156,173,0.03)"/>
      <g id="Group_505" data-name="Group 505" transform="translate(0)" clip-path="url(#clip-path-15)">
        <rect id="Rectangle_138" data-name="Rectangle 138" width="400.59" height="473.425" transform="translate(4.103 -9.227)" fill="rgba(156,156,173,0.03)"/>
      </g>
    </g>
    <g id="Group_508" data-name="Group 508" transform="translate(576.209 317.123)">
      <path id="Path_533" data-name="Path 533" d="M5120.129-3847.981c-22.567,114.143-148.308,226.888-258.11,276.577-132.1,60.38-43.83,179.449-147.5,313.417v-210.179c3.875-80.524,53-126.059,151.21-162.261,165.749-60.473,253.544-169.836,269.161-309.729-3.541,31.927-9.014,60.553-14.766,92.174m14.766-95.863c-.066.426.066,3.235,0,3.688C5134.961-3940.609,5134.882-3943.4,5134.895-3943.844Z" transform="translate(-4714.523 3943.844)" fill="rgba(156,156,173,0.03)"/>
      <g id="Group_507" data-name="Group 507" transform="translate(0)" clip-path="url(#clip-path-16)">
        <rect id="Rectangle_139" data-name="Rectangle 139" width="437.008" height="691.929" transform="translate(-17.591 -5.541)" fill="rgba(156,156,173,0.03)"/>
      </g>
    </g>
    <g id="Group_510" data-name="Group 510" transform="translate(8.345 317.122)">
      <path id="Path_535" data-name="Path 535" d="M6088.954-3630.413c98.525,36.2,147.654,81.736,151.223,162.247v210.192c-103.372-133.968-15.1-253.051-147.5-313.444-109.47-49.662-235.849-162.42-258.137-276.55-6.151-32.074-11.53-63.5-14.778-95.876,15.2,140.559,102.865,252.771,269.188,313.431" transform="translate(-5819.766 3943.844)" fill="rgba(156,156,173,0.03)"/>
      <g id="Group_509" data-name="Group 509" transform="translate(0 0)" clip-path="url(#clip-path-17)">
        <rect id="Rectangle_140" data-name="Rectangle 140" width="400.59" height="691.929" transform="translate(4.014 -5.54)" fill="rgba(156,156,173,0.03)"/>
      </g>
    </g>
    <g id="Group_512" data-name="Group 512" transform="translate(609.396 449.871)">
      <path id="Path_537" data-name="Path 537" d="M5118.769-3694.766c-51.353,237.752-173.111,417.308-365.05,534.687,49.755-63.189,109.829-133.3,132.729-177,28.759-54.389-17.441-72.962,51.673-121.692C5031.761-3524.463,5088.066-3619.594,5118.769-3694.766Z" transform="translate(-4753.719 3694.766)" fill="rgba(156,156,173,0.03)"/>
      <g id="Group_511" data-name="Group 511" transform="translate(0 0)" clip-path="url(#clip-path)">
        <rect id="Rectangle_141" data-name="Rectangle 141" width="364.173" height="509.842" transform="translate(-14.359 7.38)" fill="rgba(156,156,173,0.03)"/>
      </g>
    </g>
    <g id="Group_514" data-name="Group 514" transform="translate(30.47 449.87)">
      <path id="Path_539" data-name="Path 539" d="M6066.029-3458.685c69.395,48.757,22.874,67.291,51.633,121.679,23.22,43.71,82.708,113.784,132.743,177-192.125-117.591-313.87-297.2-365.077-534.673h0c30.41,75.132,87.342,170.276,180.7,235.995" transform="translate(-5885.328 3694.68)" fill="rgba(156,156,173,0.03)"/>
      <g id="Group_513" data-name="Group 513" transform="translate(0 0)" clip-path="url(#clip-path-2)">
        <rect id="Rectangle_142" data-name="Rectangle 142" width="400.59" height="509.842" transform="translate(-18.111 7.382)" fill="rgba(156,156,173,0.03)"/>
      </g>
    </g>
    <g id="Group_516" data-name="Group 516" transform="translate(576.209 412.995)">
      <path id="Path_541" data-name="Path 541" d="M5145.923-3762.813c-2.29,12.249-4.806,24.951-7.389,36.88-21.982,79.26-83.693,177.333-176.974,243.371-69.474,48.744-19.226,70.632-47.958,125.367-23.26,43.71-81.669,112.492-140.132,165.936-10.971,6.617-21.542,12.129-33.166,18.44,82.988-140.865,13.66-256.672,143.808-320.807C4990.026-3545.8,5112.291-3655.846,5145.923-3762.813Z" transform="translate(-4740.305 3762.813)" fill="rgba(156,156,173,0.03)"/>
      <g id="Group_515" data-name="Group 515" transform="translate(0 0)" clip-path="url(#clip-path-3)">
        <rect id="Rectangle_143" data-name="Rectangle 143" width="437.008" height="582.677" transform="translate(-17.591 7.838)" fill="rgba(156,156,173,0.03)"/>
      </g>
    </g>
    <g id="Group_518" data-name="Group 518" transform="translate(23.095 412.995)">
      <path id="Path_543" data-name="Path 543" d="M6084.128-3493.625c130.214,64.135,60.793,179.942,143.821,320.807-11.317-6.311-22.155-11.81-33.206-18.44-58.4-53.443-117.192-122.225-140.119-165.936-29.052-54.722,21.2-76.624-47.932-125.367-93.652-66.039-155.351-164.111-176.973-243.371-2.609-11.93-5.433-24.631-7.376-36.88,33.285,106.914,155.537,216.982,261.784,269.188" transform="translate(-5822.344 3762.813)" fill="rgba(156,156,173,0.03)"/>
      <g id="Group_517" data-name="Group 517" transform="translate(0 0)" clip-path="url(#clip-path-4)">
        <rect id="Rectangle_144" data-name="Rectangle 144" width="400.59" height="582.677" transform="translate(-10.736 7.838)" fill="rgba(156,156,173,0.03)"/>
      </g>
    </g>
    <g id="Group_520" data-name="Group 520" transform="translate(745.831 121.024)">
      <path id="Path_545" data-name="Path 545" d="M4960.782-4354.439c-61.991,31.155-127.79,67.889-191.738,95.889-13.887-16.683-36.295-20.064-66.372-3.7,88.167-60.767,164.538-92.187,228.646-92.187,9.64,0,19.905-1.479,29.465,0" transform="translate(-4702.672 4355.097)" fill="rgba(156,156,173,0.03)"/>
      <g id="Group_519" data-name="Group 519" transform="translate(0 0)" clip-path="url(#clip-path-5)">
        <rect id="Rectangle_145" data-name="Rectangle 145" width="254.921" height="72.835" transform="translate(-5.126 8.473)" fill="rgba(156,156,173,0.03)"/>
      </g>
    </g>
    <g id="Group_522" data-name="Group 522" transform="translate(0.97 121.687)">
      <path id="Path_547" data-name="Path 547" d="M6396.688-4262.742c-30.01-16.336-52.458-12.955-66.385,3.688-63.589-27.96-130.027-61.032-191.726-92.187,9.507-1.478,19.865-3.7,29.479-3.688,63.935,0,140.252,31.449,228.632,92.188" transform="translate(-6138.578 4354.93)" fill="rgba(156,156,173,0.03)"/>
      <g id="Group_521" data-name="Group 521" transform="translate(0 0)" clip-path="url(#clip-path-6)">
        <rect id="Rectangle_146" data-name="Rectangle 146" width="254.921" height="72.835" transform="translate(11.389 7.808)" fill="rgba(156,156,173,0.03)"/>
      </g>
    </g>
    <g id="Group_524" data-name="Group 524" transform="translate(723.706 121.69)">
      <path id="Path_549" data-name="Path 549" d="M4973.381-4141.194c-19.026,152.528-107.367,254.9-269.188,302.38-1.265.359-2.689-.306-3.661,0,61.059-25.177,79.006-77.689,84.8-147.5l18.44-206.5c2.277-25.137-3.142-48.85-14.739-62.684,53.936-47.638,121.106-81.936,191.738-95.862,2.8,69.833-.932,140.572-7.389,210.166" transform="translate(-4700.532 4351.359)" fill="rgba(156,156,173,0.03)"/>
      <g id="Group_523" data-name="Group 523" transform="translate(0 0)" clip-path="url(#clip-path-7)">
        <rect id="Rectangle_147" data-name="Rectangle 147" width="254.921" height="509.842" transform="translate(16.999 7.805)" fill="rgba(156,156,173,0.03)"/>
      </g>
    </g>
    <g id="Group_526" data-name="Group 526" transform="translate(0 121.69)">
      <path id="Path_551" data-name="Path 551" d="M6287.947-4255.5c-11.637,13.833-16.7,37.546-14.779,62.684l18.454,210.192c5.8,69.807,23.459,118.63,84.785,143.808-1.278-.306-2.37.359-3.675,0-168.905-44.017-250.148-145.432-269.161-302.38-6.364-69.607-10.278-140.333-7.35-210.166,70.459,13.993,137.855,48.277,191.726,95.862" transform="translate(-6095.233 4351.359)" fill="rgba(156,156,173,0.03)"/>
      <g id="Group_525" data-name="Group 525" transform="translate(0 0)" clip-path="url(#clip-path-8)">
        <rect id="Rectangle_148" data-name="Rectangle 148" width="254.921" height="509.842" transform="translate(12.358 7.805)" fill="rgba(156,156,173,0.03)"/>
      </g>
    </g>
    <g id="Group_528" data-name="Group 528" transform="translate(0.97 114.307)">
      <path id="Path_553" data-name="Path 553" d="M5705.642-4357.9c-66.065-.945-152.675,31.714-254.422,92.2-27.48,16.35-54.762,34.563-84.812,55.307-26.549,18.228-70.18,45.708-110.615,62.684-38.558,16.058-60.659,19.386-99.551,3.688-41.42-16.683-86.822-47.506-114.343-66.372-30.01-20.743-57.584-38.957-84.771-55.307-101.841-60.367-188.689-89.459-254.449-88.5,17.255-5.18,37.293-11.331,55.308-11.051,81.217-.054,181.66,43.164,243.358,81.1,110.042,67.956,163.286,98.126,202.8,121.692,39.5-23.566,92.467-53.736,202.829-121.692,61.445-37.933,162.021-81.1,243.357-81.1,18.081-.28,38.013,5.871,55.308,11.051" transform="translate(-4702.68 4365.255)" fill="rgba(156,156,173,0.03)"/>
      <g id="Group_527" data-name="Group 527" transform="translate(0)" clip-path="url(#clip-path-9)">
        <rect id="Rectangle_149" data-name="Rectangle 149" width="983.267" height="218.504" transform="translate(11.389 15.19)" fill="rgba(156,156,173,0.03)"/>
      </g>
    </g>
    <g id="Group_530" data-name="Group 530" transform="translate(0.97 114.033)">
      <path id="Path_555" data-name="Path 555" d="M4776.357-4370.9c19.625,1.97,25.829,5.139,77.422,22.128,121.2,39.916,134.114,38.132,147.481,55.308,4.993,6.417,16.4,23.766,29.479,22.115,11.17-1.4,15.657-17.2,22.154-14.739,5.379,2.01,2.623,12.6,11.038,22.128,3.754,3.941,9.626,9.293,14.752,11.038,18.32,8.082,28.559,27.054,36.894,36.907,23.074,27.254,72.723,19.2,117.991,11.051,23.938-4.313,47.346-8.268,62.67-7.363a19.815,19.815,0,0,0,14.792-3.688c5.832-4.9,4.993-13.913,7.323-22.142,3.795-13.141,15.418-24.485,25.829-29.491,10-4.82,20.611-2.477,29.531,0,8.574,2.383,15.151,4.127,18.4,0,3.582-4.554-3.408-13.78-3.661-18.44-2.21-39.916,312.605-97.607,317.105-77.449,2.489,11.078-133.4,25.763-254.422,129.1-27.494,23.486-54.775,51.287-84.8,81.1-26.575,26.242-70.18,67.783-110.614,92.188-38.572,23.034-60.646,26.282-99.578,3.688-41.447-23.926-86.795-68.755-114.289-95.876-30.063-29.757-57.638-57.611-84.825-81.1-101.787-86.742-188.663-130.44-254.422-129.1,16.736-7.323,36.974-7.682,55.254-7.362,6.165.013,12.369-.626,18.494,0" transform="translate(-4702.609 4371.177)" fill="rgba(156,156,173,0.03)"/>
      <g id="Group_529" data-name="Group 529" transform="translate(0)" clip-path="url(#clip-path-10)">
        <rect id="Rectangle_150" data-name="Rectangle 150" width="983.267" height="364.173" transform="translate(11.389 -20.955)" fill="rgba(156,156,173,0.03)"/>
      </g>
    </g>
    <g id="Group_532" data-name="Group 532" transform="translate(45.22)">
      <path id="Path_557" data-name="Path 557" d="M5698.119-4479.456c-115.342-36.268-188.277-11.117-258.11,14.7-59.675,22.168-117.538,42.525-199.114,25.87-81.417,16.656-139.095-3.7-199.115-25.87-70.272-25.816-142.582-50.967-258.123-14.7,143.008-67.636,299.038-103.651,457.238-103.239,158.187-.413,314.229,35.6,457.225,103.239" transform="translate(-4783.656 4582.698)" fill="rgba(156,156,173,0.03)"/>
      <g id="Group_531" data-name="Group 531" transform="translate(0 0)" clip-path="url(#clip-path-11)">
        <rect id="Rectangle_151" data-name="Rectangle 151" width="910.432" height="182.086" transform="translate(3.556 -16.173)" fill="rgba(156,156,173,0.03)"/>
      </g>
    </g>
    <g id="Group_534" data-name="Group 534" transform="translate(23.095 70.067)">
      <path id="Path_559" data-name="Path 559" d="M5680.558-4415.517c6.937,3.476,15.178,3.928,22.114,7.363-100.043-27.8-184.5,15.6-265.485,59.021-71.191,38.119-140.187,76.478-213.881,66.345-73.561,10.173-142.928-28.226-213.854-66.345-80.737-43.418-165.615-86.822-265.5-59.021,6.617-3.476,15.472-3.915,22.115-7.363,198.049-78.927,268.748,18.387,420.384,33.192,29.118,2.716,59.448.094,88.486-3.687,101.321-13.168,167.081-62.684,265.5-62.684,40.288,0,84.252,10.891,140.119,33.179" transform="translate(-4743.953 4448.695)" fill="rgba(156,156,173,0.03)"/>
      <g id="Group_533" data-name="Group 533" transform="translate(0 0)" clip-path="url(#clip-path-12)">
        <rect id="Rectangle_152" data-name="Rectangle 152" width="983.267" height="218.504" transform="translate(-10.736 -49.821)" fill="rgba(156,156,173,0.03)"/>
      </g>
    </g>
    <g id="Group_536" data-name="Group 536" transform="translate(0.97 93.334)">
      <path id="Path_561" data-name="Path 561" d="M5591.353-4402.738c31.395.08,62.923,3.289,92.188,14.766,7.283,3.741,14.846,7.283,22.1,11.024-91.988-16.949-217,39.157-291.275,88.526-68.636,45.255-117.592,77.941-154.911,95.849-45.854,22.062-60.78,21.742-106.9,0-37.32-17.575-88.047-49.01-158.6-95.849-74.586-49.369-199.607-105.516-291.276-88.526,6.95-3.742,14.846-7.283,22.115-11.024,172.979-66.345,298.732,77.289,438.8,110.628,30.689,7.23,46.786,7.2,77.436,0,114.716-26.695,221.19-125.394,350.325-125.394h0" transform="translate(-4702.68 4405.263)" fill="rgba(156,156,173,0.03)"/>
      <g id="Group_535" data-name="Group 535" transform="translate(0 0)" clip-path="url(#clip-path-13)">
        <rect id="Rectangle_153" data-name="Rectangle 153" width="983.267" height="254.921" transform="translate(11.389 -36.673)" fill="rgba(156,156,173,0.03)"/>
      </g>
    </g>
    <g id="Group_538" data-name="Group 538" transform="translate(576.204 320.81)">
      <path id="Path_563" data-name="Path 563" d="M5133.879-3957.336c-.306,2.53.319,4.86,0,7.376-10.012,145.578-98.552,263.476-265.5,324.495-95.956,35.216-134.527,66.971-154.884,147.509-.653-111.653,50.74-145.152,151.2-180.7C5024.249-3715.256,5112.576-3813.529,5133.879-3957.336Z" transform="translate(-4713.489 3957.336)" fill="rgba(156,156,173,0.03)"/>
      <g id="Group_537" data-name="Group 537" transform="translate(0 0)" clip-path="url(#clip-path-14)">
        <rect id="Rectangle_154" data-name="Rectangle 154" width="437.008" height="473.425" transform="translate(-17.586 -9.227)" fill="rgba(156,156,173,0.03)"/>
      </g>
    </g>
    <g id="Group_540" data-name="Group 540" transform="translate(8.253 320.81)">
      <path id="Path_565" data-name="Path 565" d="M6089.05-3658.657c100.709,35.549,152.129,69.034,151.144,180.7-20-80.538-58.636-112.292-154.871-147.509-166.935-61.019-255.793-178.917-265.486-324.495-.319-2.517.293-4.847,0-7.376,21.622,143.714,109.923,241.973,269.214,298.679" transform="translate(-5819.741 3957.336)" fill="rgba(156,156,173,0.03)"/>
      <g id="Group_539" data-name="Group 539" transform="translate(0)" clip-path="url(#clip-path-15)">
        <rect id="Rectangle_155" data-name="Rectangle 155" width="400.59" height="473.425" transform="translate(4.103 -9.227)" fill="rgba(156,156,173,0.03)"/>
      </g>
    </g>
    <g id="Group_542" data-name="Group 542" transform="translate(576.209 317.123)">
      <path id="Path_567" data-name="Path 567" d="M5120.129-3847.981c-22.567,114.143-148.308,226.888-258.11,276.577-132.1,60.38-43.83,179.449-147.5,313.417v-210.179c3.875-80.524,53-126.059,151.21-162.261,165.749-60.473,253.544-169.836,269.161-309.729-3.541,31.927-9.014,60.553-14.766,92.174m14.766-95.863c-.066.426.066,3.235,0,3.688C5134.961-3940.609,5134.882-3943.4,5134.895-3943.844Z" transform="translate(-4714.523 3943.844)" fill="rgba(156,156,173,0.03)"/>
      <g id="Group_541" data-name="Group 541" transform="translate(0)" clip-path="url(#clip-path-16)">
        <rect id="Rectangle_156" data-name="Rectangle 156" width="437.008" height="691.929" transform="translate(-17.591 -5.541)" fill="rgba(156,156,173,0.03)"/>
      </g>
    </g>
    <g id="Group_544" data-name="Group 544" transform="translate(8.345 317.122)">
      <path id="Path_569" data-name="Path 569" d="M6088.954-3630.413c98.525,36.2,147.654,81.736,151.223,162.247v210.192c-103.372-133.968-15.1-253.051-147.5-313.444-109.47-49.662-235.849-162.42-258.137-276.55-6.151-32.074-11.53-63.5-14.778-95.876,15.2,140.559,102.865,252.771,269.188,313.431" transform="translate(-5819.766 3943.844)" fill="rgba(156,156,173,0.03)"/>
      <g id="Group_543" data-name="Group 543" transform="translate(0 0)" clip-path="url(#clip-path-17)">
        <rect id="Rectangle_157" data-name="Rectangle 157" width="400.59" height="691.929" transform="translate(4.014 -5.54)" fill="rgba(156,156,173,0.03)"/>
      </g>
    </g>
  </g>
</svg>
