<svg xmlns="http://www.w3.org/2000/svg" width="37.508" height="37.683" viewBox="0 0 37.508 37.683"><path d="M39.8,28.81H11.909A4.809,4.809,0,0,0,7.1,33.619V52.106a4.809,4.809,0,0,0,4.809,4.809H39.8a4.809,4.809,0,0,0,4.809-4.809V33.619A4.809,4.809,0,0,0,39.8,28.81ZM11.9,31.433H39.8a2.186,2.186,0,0,1,2.186,2.186V46.965l-6.514-5.193a1.311,1.311,0,0,0-1.613,0l-7.733,5.9-6.194-6.78a1.311,1.311,0,0,0-1.67-.223L9.723,46.078V33.619a2.186,2.186,0,0,1,2.186-2.186ZM9.719,52.106V49.181l9.019-5.709,9.893,10.82H11.909a2.186,2.186,0,0,1-2.186-2.186ZM39.8,54.292H32.184L27.9,49.61l6.732-5.15,7.349,5.854v1.792A2.186,2.186,0,0,1,39.8,54.292Z" transform="translate(-7.1 -19.232)" fill="#8a8aa5"/><path d="M46.318,49.135a4.608,4.608,0,1,0-4.608-4.608,4.608,4.608,0,0,0,4.608,4.608Zm0-6.592a1.985,1.985,0,1,1-1.985,1.985A1.985,1.985,0,0,1,46.318,42.543Z" transform="translate(-26.58 -25.485)" fill="#8a8aa5"/><path d="M16.05,19.171a1.311,1.311,0,0,0,1.311,1.311h27.06a1.311,1.311,0,0,0,0-2.623H17.361A1.311,1.311,0,0,0,16.05,19.171Z" transform="translate(-12.137 -13.069)" fill="#8a8aa5"/><path d="M45.295,9.523a1.311,1.311,0,1,0,0-2.623H24.311a1.311,1.311,0,1,0,0,2.623Z" transform="translate(-16.049 -6.9)" fill="#8a8aa5"/></svg>