<svg xmlns="http://www.w3.org/2000/svg" width="16" height="18" viewBox="0 0 16 18">
  <path id="Path_240" data-name="Path 240" d="M20.09,7.146V8.171h-16V7.146A2.454,2.454,0,0,1,6.468,4.635H8.589v1.6a.476.476,0,1,0,.951,0v-1.6h5.1v1.6a.476.476,0,1,0,.951,0v-1.6h2.121A2.454,2.454,0,0,1,20.09,7.146Zm-16,2.029h16v9.854a2.454,2.454,0,0,1-2.378,2.511H6.468A2.454,2.454,0,0,1,4.09,19.029Zm12.376,9.382a.489.489,0,0,0-.476-.5H12.509a.489.489,0,0,0-.476.5.5.5,0,0,0,.476.5H15.99A.489.489,0,0,0,16.466,18.557ZM13.4,12a.5.5,0,0,0,.476.5h.571a.5.5,0,0,0,.476-.5.489.489,0,0,0-.476-.5h-.571a.489.489,0,0,0-.476.5Zm-.837,1.667a.5.5,0,0,0,.476.5H15.99a.5.5,0,0,0,0-1H13.041A.489.489,0,0,0,12.566,13.665Zm-.057,2.722a.489.489,0,0,0-.476.5.5.5,0,0,0,.476.5h1.941a.5.5,0,0,0,.476-.5.489.489,0,0,0-.476-.5Zm-.866-4.751-1.189,1.446-.4-.683a.461.461,0,0,0-.656-.151.492.492,0,0,0-.216.312.516.516,0,0,0,.064.381l.742,1.246a.473.473,0,0,0,.371.241H10.4a.447.447,0,0,0,.352-.171L12.366,12.3a.513.513,0,0,0,.115-.362.505.505,0,0,0-.163-.341.471.471,0,0,0-.675.04ZM7.714,13.665a.476.476,0,1,0,.951,0V11.656h1.9a.5.5,0,0,0,0-1H8.19a.489.489,0,0,0-.476.5Zm0,4.892a.489.489,0,0,0,.476.5h2.378a.5.5,0,0,0,.476-.5V16.046a.489.489,0,0,0-.476-.5H8.19a.489.489,0,0,0-.476.5Zm2.378-2.009H8.666v1.507h1.427ZM9.541,4.042a.489.489,0,0,0-.476-.5.5.5,0,0,0-.476.5v.593h.951Zm6.05,0a.5.5,0,0,0-.476-.5.489.489,0,0,0-.476.5v.593h.951Z" transform="translate(-4.09 -3.54)" fill="#8a8aa5"/>
</svg>
