<svg id="Group_577" data-name="Group 577" xmlns="http://www.w3.org/2000/svg" width="60" height="60" viewBox="0 0 60 60">
  <path id="Path_257" data-name="Path 257" d="M92.273,204H74.5a9.648,9.648,0,0,0-9.5,8.094,22.964,22.964,0,0,0,36.95,0A9.7,9.7,0,0,0,92.273,204Z" transform="translate(-53.387 -168.106)" fill="#8a8aa5" fill-rule="evenodd"/>
  <path id="Path_258" data-name="Path 258" d="M128.15,61c-5.1,0-9.15,4.575-9.15,10.381s4.047,10.381,9.15,10.381c4.927,0,8.974-4.575,8.974-10.381S133.076,61,128.15,61Z" transform="translate(-98.062 -50.267)" fill="#8a8aa5" fill-rule="evenodd"/>
  <path id="Path_259" data-name="Path 259" d="M30.088,0A30,30,0,1,0,60,29.912,30.037,30.037,0,0,0,30.088,0Zm0,3.7A26.217,26.217,0,1,1,3.871,29.912,26.283,26.283,0,0,1,30.088,3.7Z" fill="#8a8aa5"/>
</svg>
