<svg xmlns="http://www.w3.org/2000/svg" width="34.598" height="44" viewBox="0 0 34.598 44"><g transform="translate(-12.7 -2.5)"><path d="M31.226,11.763a9.263,9.263,0,1,0-9.263,9.263A9.261,9.261,0,0,0,31.226,11.763Zm-10.514,0v-5a1.251,1.251,0,0,1,2.5,0v3.8h2.455a1.251,1.251,0,0,1,0,2.5H21.963A1.317,1.317,0,0,1,20.713,11.763Z" transform="translate(0 0)" fill="#f36e32"/><path d="M71.8,24.8v6.947h6.947Z" transform="translate(-31.727 -11.972)" fill="#8a8aa5"/><path d="M47.573,33.926a1.245,1.245,0,0,1-1.251-1.251V24.2H42.432A11.785,11.785,0,0,1,30.714,35.177,10.689,10.689,0,0,1,29,35.038V55.695a2.441,2.441,0,0,0,2.455,2.455H53.594a2.471,2.471,0,0,0,2.455-2.455V33.926Zm1.714,19.453H35.762a1.251,1.251,0,1,1,0-2.5H49.286a1.251,1.251,0,1,1,0,2.5Zm0-6.345H35.762a1.251,1.251,0,0,1,0-2.5H49.286a1.251,1.251,0,0,1,0,2.5Zm0-6.3H35.762a1.251,1.251,0,1,1,0-2.5H49.286a1.251,1.251,0,1,1,0,2.5Z" transform="translate(-8.751 -11.649)" fill="#8a8aa5"/></g></svg>